<svg width="1213" height="717" viewBox="0 0 1213 717" fill="none" xmlns="http://www.w3.org/2000/svg">
<path d="M22.5319 435.126L5.68225 587.774C44.6465 584.264 76.4901 551.116 79.4989 509.444C80.0899 500.07 78.738 490.674 75.5279 481.846C72.3178 473.018 67.3186 464.949 60.844 458.144C50.4248 447.104 37.1713 439.141 22.5319 435.126V435.126Z" fill="#24282B"/>
<path d="M344.375 458.143C336.404 449.767 326.811 443.1 316.182 438.549C305.552 433.997 294.107 431.655 282.544 431.666C270.913 431.6 259.392 433.916 248.69 438.469C237.987 443.023 228.33 449.718 220.312 458.143C213.837 464.949 208.838 473.018 205.628 481.846C202.418 490.673 201.066 500.069 201.657 509.444C204.866 553.573 240.27 588.125 282.344 588.125C324.417 588.125 359.821 553.573 363.03 509.444C363.621 500.069 362.269 490.673 359.059 481.846C355.849 473.018 350.85 464.949 344.375 458.143V458.143Z" fill="#24282B"/>
<path d="M172.171 124.666H106.979C105.354 133.568 104.515 142.595 104.472 151.645H168.159C168.096 142.498 169.449 133.398 172.171 124.666V124.666Z" fill="#F95C4F"/>
<path d="M343.974 151.745H407.661C407.627 142.693 406.771 133.663 405.104 124.766H339.912C342.651 133.495 344.021 142.596 343.974 151.745Z" fill="#F95C4F"/>
<path d="M282.344 468.524C295.733 468.524 306.615 463.76 306.615 457.893C306.615 452.025 295.733 447.312 282.344 447.312C268.955 447.312 258.073 452.025 258.073 457.893C258.073 463.76 268.754 468.524 282.344 468.524Z" fill="white"/>
<path d="M511.816 638.171L460.717 176.066C459.977 169.386 456.801 163.212 451.796 158.725C446.791 154.238 440.309 151.753 433.587 151.745H407.711C407.677 142.693 406.821 133.663 405.154 124.766C398.816 89.7988 380.416 58.1622 353.156 35.3645C325.896 12.5668 291.503 0.0523537 255.966 0C220.438 0.0461199 186.05 12.5446 158.784 35.3216C131.517 58.0986 113.098 89.7129 106.729 124.665C105.103 133.568 104.264 142.595 104.221 151.645H78.195C71.4703 151.642 64.9818 154.123 59.9747 158.612C54.9676 163.101 51.7949 169.281 51.0655 175.966L28.0479 386.333C54.3239 391.98 78.2543 405.502 96.649 425.097C107.321 436.601 115.65 450.074 121.171 464.763C127.452 462.612 134.04 461.494 140.678 461.453C147.317 461.499 153.904 462.616 160.185 464.763C165.668 450.055 174.001 436.575 184.707 425.097C197.303 411.78 212.488 401.178 229.33 393.943C246.172 386.708 264.315 382.992 282.645 383.023C300.909 383.035 318.979 386.772 335.749 394.006C352.52 401.241 367.638 411.82 380.18 425.097C394.684 440.679 404.7 459.896 409.166 480.71H442.965H445.522C451.688 481.552 457.32 484.656 461.324 489.42C465.328 494.184 467.417 500.267 467.186 506.485C466.602 512.824 463.63 518.703 458.871 522.931C454.113 527.159 447.924 529.419 441.561 529.252H409.166C397.231 590.732 344.325 636.918 282.193 636.868C216.4 636.868 160.887 585.016 153.616 517.919C152.169 515.706 150.231 513.857 147.952 512.518C145.673 511.178 143.115 510.384 140.478 510.196C137.837 510.368 135.273 511.156 132.992 512.497C130.71 513.838 128.774 515.695 127.339 517.919C120.118 584.514 65.3573 636.065 0.166151 636.817V638.272C-0.257067 642.093 0.130417 645.96 1.30352 649.62C2.47662 653.281 4.40903 656.654 6.97414 659.517C9.53925 662.38 12.6793 664.67 16.1897 666.237C19.7001 667.804 23.5015 668.613 27.3458 668.611H484.787C488.631 668.601 492.429 667.78 495.932 666.2C499.436 664.62 502.567 662.318 505.119 659.444C507.671 656.57 509.587 653.189 510.741 649.523C511.895 645.857 512.261 641.989 511.816 638.171V638.171ZM167.908 151.745C167.926 142.586 169.364 133.484 172.17 124.766C177.9 107.041 189.093 91.5853 204.146 80.6131C219.199 69.6409 237.339 63.7157 255.966 63.6867C274.581 63.7088 292.712 69.6195 307.763 80.5726C322.815 91.5257 334.015 106.96 339.762 124.665C342.569 133.384 344.007 142.485 344.025 151.645L167.908 151.745Z" fill="#F84536"/>
<path d="M814.59 479.464C805.693 474.029 795.783 470.462 785.464 468.978C775.144 467.494 764.631 468.125 754.563 470.833C744.418 473.49 734.925 478.195 726.667 484.658C718.409 491.122 711.56 499.206 706.543 508.415C702.493 515.852 700.022 524.047 699.286 532.484C698.551 540.921 699.566 549.419 702.268 557.446C715.361 595.129 754.257 616.958 790.899 607.14C827.541 597.322 850.311 558.969 842.808 519.788C841.135 511.486 837.765 503.619 832.909 496.68C828.054 489.741 821.817 483.879 814.59 479.464V479.464Z" fill="#24282B"/>
<path d="M762.989 502.98C774.65 499.855 783.015 493.167 781.646 488.057C780.277 482.947 769.7 481.381 758.039 484.506C746.379 487.63 738.001 494.275 739.371 499.385C740.74 504.495 751.154 506.151 762.989 502.98Z" fill="white"/>
<path d="M1002.79 508.396C997.804 499.241 991.005 491.197 982.81 484.752C974.615 478.308 965.194 473.597 955.121 470.908C945.007 468.137 934.434 467.465 924.05 468.933C913.667 470.402 903.694 473.979 894.745 479.445C887.518 483.861 881.281 489.722 876.425 496.661C871.57 503.6 868.2 511.467 866.527 519.77C859.024 558.951 881.794 597.303 918.436 607.122C955.078 616.94 993.974 595.111 1007.07 557.427C1009.77 549.401 1010.78 540.903 1010.05 532.465C1009.31 524.028 1006.84 515.834 1002.79 508.396V508.396Z" fill="#24282B"/>
<path d="M946.346 502.962C958.007 506.086 968.595 504.476 969.964 499.367C971.333 494.257 962.957 487.612 951.296 484.488C939.635 481.363 929.058 482.929 927.689 488.039C926.32 493.149 934.51 499.79 946.346 502.962Z" fill="white"/>
<path d="M663.75 339C662.083 339 660.667 338.5 659.5 337.5C658.5 336.333 658 334.917 658 333.25V186.25H610C608.333 186.25 606.917 185.75 605.75 184.75C604.75 183.583 604.25 182.167 604.25 180.5V170C604.25 168.167 604.75 166.75 605.75 165.75C606.917 164.583 608.333 164 610 164H730.5C732.333 164 733.75 164.583 734.75 165.75C735.917 166.75 736.5 168.167 736.5 170V180.5C736.5 182.167 735.917 183.583 734.75 184.75C733.75 185.75 732.333 186.25 730.5 186.25H682.75V333.25C682.75 334.917 682.167 336.333 681 337.5C680 338.5 678.583 339 676.75 339H663.75ZM796.525 339C794.692 339 793.275 338.5 792.275 337.5C791.275 336.333 790.775 334.917 790.775 333.25V170C790.775 168.167 791.275 166.75 792.275 165.75C793.275 164.583 794.692 164 796.525 164H809.275C811.109 164 812.525 164.583 813.525 165.75C814.692 166.75 815.275 168.167 815.275 170V239H901.275V170C901.275 168.167 901.775 166.75 902.775 165.75C903.942 164.583 905.359 164 907.025 164H919.775C921.609 164 923.025 164.583 924.025 165.75C925.192 166.75 925.775 168.167 925.775 170V333.25C925.775 334.917 925.192 336.333 924.025 337.5C923.025 338.5 921.609 339 919.775 339H907.025C905.359 339 903.942 338.5 902.775 337.5C901.775 336.333 901.275 334.917 901.275 333.25V261.5H815.275V333.25C815.275 334.917 814.692 336.333 813.525 337.5C812.525 338.5 811.109 339 809.275 339H796.525ZM1001 339C999.165 339 997.748 338.5 996.748 337.5C995.748 336.333 995.248 334.917 995.248 333.25V170C995.248 168.167 995.748 166.75 996.748 165.75C997.748 164.583 999.165 164 1001 164H1104.25C1106.08 164 1107.5 164.583 1108.5 165.75C1109.5 166.75 1110 168.167 1110 170V179.5C1110 181.333 1109.5 182.75 1108.5 183.75C1107.5 184.75 1106.08 185.25 1104.25 185.25H1019.25V240H1098.75C1100.58 240 1102 240.583 1103 241.75C1104 242.75 1104.5 244.167 1104.5 246V255.25C1104.5 256.917 1104 258.333 1103 259.5C1102 260.5 1100.58 261 1098.75 261H1019.25V317.75H1106.25C1108.08 317.75 1109.5 318.25 1110.5 319.25C1111.5 320.25 1112 321.667 1112 323.5V333.25C1112 334.917 1111.5 336.333 1110.5 337.5C1109.5 338.5 1108.08 339 1106.25 339H1001ZM625.5 648C623.667 648 622.25 647.5 621.25 646.5C620.25 645.333 619.75 643.917 619.75 642.25V478.75C619.75 477.083 620.25 475.75 621.25 474.75C622.25 473.583 623.667 473 625.5 473H638.75C640.417 473 641.75 473.583 642.75 474.75C643.75 475.75 644.25 477.083 644.25 478.75V626.25H727.5C729.333 626.25 730.75 626.833 731.75 628C732.75 629 733.25 630.417 733.25 632.25V642.25C733.25 643.917 732.75 645.333 731.75 646.5C730.75 647.5 729.333 648 727.5 648H625.5ZM1045.62 648C1043.95 648 1042.53 647.5 1041.37 646.5C1040.37 645.333 1039.87 643.917 1039.87 642.25V476.25C1039.87 474.583 1040.37 473.25 1041.37 472.25C1042.53 471.083 1043.95 470.5 1045.62 470.5H1057.37C1059.03 470.5 1060.37 471.083 1061.37 472.25C1062.53 473.25 1063.12 474.583 1063.12 476.25V563.25L1112.37 522.25C1114.37 520.583 1115.87 519.5 1116.87 519C1118.03 518.333 1119.87 518 1122.37 518H1135.62C1137.12 518 1138.37 518.5 1139.37 519.5C1140.37 520.5 1140.87 521.75 1140.87 523.25C1140.87 523.917 1140.62 524.667 1140.12 525.5C1139.78 526.333 1139.03 527.167 1137.87 528L1080.12 576L1144.12 638.25C1146.12 639.917 1147.12 641.417 1147.12 642.75C1147.12 644.25 1146.62 645.5 1145.62 646.5C1144.62 647.5 1143.37 648 1141.87 648H1128.87C1126.37 648 1124.53 647.75 1123.37 647.25C1122.2 646.583 1120.7 645.417 1118.87 643.75L1063.12 590.5V642.25C1063.12 643.917 1062.53 645.333 1061.37 646.5C1060.37 647.5 1059.03 648 1057.37 648H1045.62Z" fill="#F84536"/>
</svg>
